<svg width="1800" height="390" viewBox="0 0 1800 390" fill="none" xmlns="http://www.w3.org/2000/svg">
<g clip-path="url(#clip0_1549_63491)">
<g clip-path="url(#clip1_1549_63491)">
<path d="M2103.85 20.2375L2101.79 18.715C2081.2 3.2586 2057.66 -10.6227 2033.49 -22.8632C2066.08 -46.388 2092.76 -69.5219 2109.39 -90.9653C2117.51 -101.453 2120.4 -110.077 2120.82 -116.729C2132.87 -37.4698 2145.78 47.3505 2148.27 63.6341C2136.6 48.0358 2121.32 33.5542 2103.85 20.2375ZM1936.64 -63.778C1888.59 -80.7971 1852.45 -89.569 1852.45 -89.569C1852.45 -89.569 1708.06 -131.568 1401.87 -131.419C1132.48 -131.316 823.314 -102.981 261.214 -133.059C-52.1722 -149.838 -125.937 -207.687 -125.937 -207.687L-237.548 -279.839C-237.548 -279.839 -259.844 -290.8 -253.022 -312.11C-252.849 -312.526 -252.775 -312.937 -252.602 -313.353C-252.344 -313.977 -252.091 -314.702 -251.832 -315.326L-251.574 -315.951C-251.41 -316.421 -251.206 -316.874 -250.964 -317.306C-250.878 -317.514 -250.7 -317.829 -250.613 -318.037C-250.447 -318.474 -250.24 -318.894 -249.998 -319.292C-249.911 -319.5 -249.733 -319.815 -249.647 -320.023C-249.475 -320.439 -249.204 -320.861 -249.032 -321.277C-248.945 -321.485 -248.767 -321.8 -248.681 -322.008C-248.408 -322.441 -248.172 -322.896 -247.973 -323.37C-247.887 -323.578 -247.702 -323.791 -247.616 -323.999C-247.261 -324.653 -246.871 -325.286 -246.448 -325.895C-246.061 -326.585 -245.64 -327.253 -245.187 -327.898C-245.067 -328.132 -244.914 -328.346 -244.732 -328.534L-243.829 -329.907C-243.644 -330.121 -243.466 -330.436 -243.281 -330.65C-243.009 -331.096 -242.705 -331.521 -242.372 -331.921C-242.187 -332.135 -242.009 -332.45 -241.825 -332.664C-241.554 -333.086 -241.186 -333.514 -240.915 -333.936C-240.731 -334.15 -240.552 -334.465 -240.368 -334.678C-240.009 -335.118 -239.675 -335.578 -239.366 -336.057C-239.182 -336.271 -239.096 -336.479 -238.911 -336.693C-238.457 -337.329 -237.904 -337.97 -237.449 -338.606L-237.356 -338.713C-236.803 -339.355 -236.349 -339.991 -235.802 -340.733C-235.62 -340.921 -235.467 -341.135 -235.347 -341.369C-234.955 -341.808 -234.587 -342.271 -234.247 -342.753C-234.058 -343.026 -233.842 -343.277 -233.602 -343.502C-233.233 -343.93 -232.962 -344.352 -232.594 -344.78L-231.949 -345.528C-231.637 -345.944 -231.298 -346.337 -230.935 -346.705L-230.29 -347.453L-229.184 -348.736L-228.631 -349.378C-228.072 -349.918 -227.617 -350.554 -227.058 -351.095L-226.874 -351.309L-225.215 -353.234L-224.662 -353.875C-224.286 -354.328 -223.883 -354.759 -223.458 -355.164L-222.813 -355.913C-222.45 -356.281 -222.111 -356.674 -221.8 -357.089L-221.154 -357.838C-220.786 -358.265 -220.411 -358.592 -220.135 -358.913C-219.894 -359.138 -219.678 -359.389 -219.49 -359.661C-219.121 -360.089 -218.747 -360.416 -218.378 -360.844L-217.825 -361.485C-217.356 -362.015 -216.86 -362.519 -216.339 -362.994C-216.246 -363.101 -216.148 -363.107 -216.154 -363.208C-215.595 -363.748 -215.042 -364.39 -214.484 -364.931C-214.201 -365.15 -214.023 -365.465 -213.74 -365.685C-213.375 -366.017 -213.034 -366.376 -212.721 -366.76C-212.444 -367.081 -212.162 -367.301 -211.885 -367.621C-211.609 -367.942 -211.234 -368.269 -210.958 -368.59C-207.991 -371.708 -205.11 -374.619 -202.518 -377.411C-186.209 -394.715 -77.4058 -488.024 -33.0215 -607.36C-33.0215 -607.36 -34.1385 -576.036 -50.5866 -525.842L-50.5925 -525.943L-50.8512 -525.319C-51.3568 -523.868 -51.8564 -522.316 -52.356 -520.764C-52.4585 -520.53 -52.5428 -520.287 -52.6086 -520.039C-53.1944 -518.279 -53.7804 -516.519 -54.4644 -514.753C-54.6368 -514.337 -54.7171 -514.028 -54.8896 -513.612C-55.3892 -512.06 -55.9927 -510.603 -56.4923 -509.051C-56.6648 -508.635 -56.7451 -508.326 -56.9175 -507.91C-57.5955 -506.043 -58.2735 -504.176 -59.0496 -502.303C-59.1299 -501.994 -59.3141 -501.781 -59.3945 -501.471C-59.9862 -499.813 -60.6821 -498.249 -61.2739 -496.59C-61.4463 -496.174 -61.6187 -495.758 -61.7852 -495.241C-62.5554 -493.267 -63.3315 -491.394 -64.1997 -489.414L-64.1938 -489.313C-64.9699 -487.441 -65.8382 -485.461 -66.6083 -483.487C-66.7808 -483.071 -67.0454 -482.548 -67.2178 -482.132C-67.9939 -480.259 -68.8681 -478.381 -69.6382 -476.407C-69.7304 -476.3 -69.7185 -476.098 -69.8107 -475.991C-70.673 -473.91 -71.6333 -471.824 -72.5937 -469.737C-72.7662 -469.321 -73.0308 -468.798 -73.2033 -468.381C-73.9853 -466.61 -74.8595 -464.732 -75.7396 -462.954C-75.918 -462.639 -76.0903 -462.223 -76.2687 -461.908C-77.3272 -459.816 -78.2817 -457.628 -79.3342 -455.434C-79.5126 -455.119 -79.6852 -454.703 -79.8635 -454.388C-80.7377 -452.51 -81.7099 -450.625 -82.6821 -448.741C-82.9527 -448.319 -83.1193 -447.802 -83.3898 -447.38C-84.5405 -445.18 -85.691 -442.981 -86.8357 -440.681C-86.9279 -440.574 -87.0141 -440.366 -87.1063 -440.259C-88.1648 -438.166 -89.3214 -436.068 -90.478 -433.97C-90.7426 -433.447 -91.0071 -432.924 -91.2777 -432.502C-93.7692 -427.991 -96.3531 -423.372 -99.0348 -418.748C-99.113 -418.571 -99.2592 -418.38 -99.3472 -418.202C-102.029 -413.578 -104.901 -408.841 -107.767 -404.003C-139.567 -352.089 -171.612 -297.623 -166.847 -261.674C-166.847 -261.674 -164.359 -261.212 -158.323 -260.656C-158.865 -268.235 -158.931 -292.862 -141.594 -329.073C-142.122 -327.662 -150.833 -304.322 -147.588 -307.569C-147.588 -307.569 -156.488 -283.091 -156.441 -260.462C-111.808 -256.303 92.8007 -244.861 786.48 -288.939C1156.95 -312.478 1403.19 -338.004 1592.71 -337.239C1816.29 -336.257 1956.98 -323.875 2065.08 -294.851C2070.38 -293.439 2081.01 -290.008 2088.43 -284.257C2095.86 -278.505 2097.48 -270.888 2098.5 -263.641C2098.52 -263.217 2098.68 -262.444 2098.85 -261.348C2099.92 -254.308 2103.06 -233.607 2107.28 -205.877C2102.86 -175.017 2033.73 -122.153 1936.64 -63.778ZM2031.73 -193.36C1795.74 -246.432 1491.53 -236.506 1491.53 -236.506C1615.99 -232.299 1688.64 -223.808 1688.64 -223.808C1872.04 -214.014 1972.95 -188.949 2008.93 -178.219C2016.74 -183.248 2024.42 -188.32 2031.73 -193.36ZM1134.8 -164.538C1134.8 -164.538 1424.52 -183.706 1593.41 -175.53C1760.57 -167.445 1838.96 -158.878 1938.11 -135.678L1943.91 -138.984C1931.32 -142.299 1840.16 -166.074 1794.59 -175.455C1794.59 -175.455 1553.69 -216.719 1104.51 -180.812L1068.6 -172.192L1134.8 -164.538ZM427.11 -199.908L256.311 -192.037L494.567 -194.257L505.818 -198.779L427.11 -199.908ZM663.082 -190.728L871.901 -191.409L1103.88 -203.406L1219.45 -216.433L905.744 -213.505L866.48 -211.183L697.286 -199.449L663.082 -190.728ZM1723.55 -282.097C1874.04 -288.767 2001.86 -277.755 2001.86 -277.755C1785.68 -320.278 1493.6 -311.019 1493.6 -311.019C1517.95 -313.778 1578.5 -315.127 1578.5 -315.127C1523.47 -316.946 1386.9 -311.202 1239.81 -303.516C1112.39 -294.456 964.151 -282.846 787.743 -271.599C755.386 -269.482 724.037 -267.526 693.696 -265.731L770.445 -259.412L712.21 -248.762C863.482 -257.304 987.682 -260.896 1091.47 -266.731C1534.81 -291.534 1586.4 -284.438 1586.4 -284.438C1462.39 -287.657 1157.65 -259.482 1157.65 -259.482L1101.64 -247.745C1101.64 -247.745 1471.26 -275.699 1704 -262.978C1917.65 -251.391 2018.32 -223.581 2055.25 -210.421C2062.84 -216.259 2069.73 -221.954 2075.67 -227.43C1998.18 -264.852 1723.55 -282.097 1723.55 -282.097ZM2109.95 -124.611C2102.35 -114.378 2084.65 -88.8929 2005.1 -36.4783C1995.72 -40.7034 1986.38 -44.6773 1977.21 -48.4072C2110.21 -127.164 2112.17 -155.493 2112.17 -155.493C2104.56 -141.982 2074.26 -124.885 2073.18 -124.284C2073.78 -124.786 2083.63 -133.071 2099.98 -151.829C2108.49 -161.7 2111.11 -171.13 2111.55 -178.088C2113.16 -167.334 2114.92 -155.96 2116.69 -144.313C2116.51 -137.158 2114.13 -130.254 2109.91 -124.588L2109.95 -124.611ZM-117.603 -369.464C-123.448 -358.36 -128.91 -349.106 -133.626 -338.882C-130.197 -349.357 -125.635 -359.397 -120.025 -368.813C-110.262 -385.101 -107.14 -392.298 -104.167 -395.316C-104.435 -394.843 -111.89 -380.468 -117.641 -369.441L-117.603 -369.464ZM2089.28 -316.012C2089.34 -315.947 2089.38 -315.866 2089.41 -315.779C2089.43 -315.691 2089.43 -315.599 2089.41 -315.512C2089.09 -316.708 2088.52 -317.816 2087.73 -318.753C2086.94 -319.691 2085.96 -320.433 2084.86 -320.926C2081.12 -322.532 2079.98 -323.58 2047.84 -331.219C2009.81 -340.235 1880.62 -354.615 1796.17 -359.566C1749.58 -361.884 1702.86 -362.977 1656.3 -363.166C1610.77 -364.025 1565.27 -362.856 1519.79 -361.383C1514.38 -361.266 1508.88 -361.042 1503.49 -360.622C1501.64 -360.44 1499.76 -360.715 1498.03 -361.424C1496.29 -362.133 1494.74 -363.256 1493.51 -364.7C1492.83 -365.463 1492.43 -366.442 1492.36 -367.474C1512.49 -368.36 1559.03 -370.301 1583.64 -370.133C1688.36 -370.238 1793.21 -366.495 1897.53 -356.63L1913.56 -355.143C1922.37 -354.311 1931.18 -353.411 1940 -352.444C1987.26 -347.121 2030.13 -342.857 2078.55 -329.382C2084.56 -327.708 2086.63 -325.902 2088.01 -324.258C2089.38 -322.614 2089.26 -317.411 2089.24 -315.989L2089.28 -316.012ZM-107.637 -268.262C-105.179 -267.382 -102.635 -266.783 -100.052 -266.477C-112.624 -266.038 -146.799 -268.076 -152.426 -268.352C-152.426 -268.352 -149.144 -269.46 -149.355 -271.376C-149.355 -271.376 -120.918 -270.013 -108.171 -270.168C-108.655 -270.018 -110.046 -268.9 -107.675 -268.239L-107.637 -268.262ZM-108.171 -270.168C-108.103 -270.172 -108.054 -270.175 -108.044 -270.176L-108.171 -270.168ZM1533.66 -104.527C1533.46 -102.891 1617.7 -96.4063 1617.94 -95.7099C1579.9 -98.1284 1521.38 -102.38 1484.33 -103.232C1441.4 -105.159 1398.47 -105.36 1355.53 -105.763C1266.79 -105.182 1178.05 -101.15 1089.25 -99.7542C1008.79 -98.9524 928.345 -97.7461 847.839 -97.6522C806.079 -98.1251 764.28 -97.5808 722.392 -98.5536C695.207 -98.8738 560.918 -101.18 498.002 -103.243C435.085 -105.306 379.621 -109.536 298.149 -114.155C265.954 -116.005 231.051 -118.711 174.74 -125.63C-46.876 -152.679 -104.697 -193.751 -106.455 -195.027C25.1769 -122.862 398.279 -110.436 530.742 -107.21C584.605 -105.119 638.459 -104.854 692.269 -103.673C830.624 -102.52 968.929 -103.361 1107.18 -106.194C1182.25 -106.676 1257.22 -110.603 1332.27 -111.389C1403.88 -113.19 1499.1 -109.699 1566.24 -105.947C1564.15 -105.945 1533.81 -106.089 1533.62 -104.504L1533.66 -104.527ZM-230.345 -360.156C-230.551 -360.144 -251.598 -337.861 -258.933 -323.959C-262.12 -317.884 -271.553 -302.834 -252.319 -289.368C-253.196 -289.884 -267.946 -298.724 -267.204 -310.581C-266.346 -322.81 -255.88 -342.408 -215.187 -378.61L-230.345 -360.156ZM8.51031 -266.506C8.51031 -266.506 21.9809 -268.419 21.782 -270.132C21.6128 -271.34 19.241 -271.504 19.241 -271.504C233.39 -276.966 456.73 -298.601 671.898 -301.789C457.941 -285.662 219.967 -271.89 8.4722 -266.483L8.51031 -266.506ZM-170.106 -417.203C-183.242 -404.715 -192.213 -396.735 -192.597 -396.397C-192.476 -396.679 -190.223 -401.399 -172.139 -418.301C-137.97 -450.291 -107.357 -484.334 -106.405 -485.396C-117.061 -469.715 -156.734 -430.041 -170.144 -417.181L-170.106 -417.203ZM1208.95 -339.647C1170.47 -336.254 1131.79 -334.575 1093.22 -330.974C990.326 -323.264 885.294 -316.746 782.468 -316.246C958.001 -330.689 1138.33 -342.269 1313.64 -357.003C1293.96 -352.977 1235.94 -342.035 1208.91 -339.624L1208.95 -339.647ZM1945.44 -138.628L1943.98 -139.008L1938.18 -135.702L1941.43 -134.94C2042.09 -111.159 1945.4 -138.605 1945.4 -138.605L1945.44 -138.628ZM2047.87 -189.646C2042.54 -190.927 2037.18 -192.173 2031.77 -193.382C2024.46 -188.342 2016.81 -183.272 2008.97 -178.221C2019.35 -175.131 2024.32 -173.233 2024.32 -173.233L2047.87 -189.646ZM2088.64 -219.459C2084.64 -222.637 2080.28 -225.313 2075.67 -227.43C2069.73 -221.954 2062.84 -216.259 2055.25 -210.421C2067.52 -206.072 2072.75 -203.337 2072.75 -203.337L2088.64 -219.459ZM-67.7637 -249.612C-67.7637 -249.612 -183.244 -253.437 -224.808 -272.393C-224.808 -272.393 -181.215 -247.367 -98.9761 -246.447L-67.7637 -249.612ZM-184.343 -277.222C-184.343 -277.222 -186.981 -300.408 -167.525 -334.542L-118.959 -402.671L-140.353 -368.017C-140.293 -368 -183.713 -307.786 -184.381 -277.199L-184.343 -277.222ZM-219.826 -330.129C-219.826 -330.129 -211.954 -352.009 -205.206 -361.136C-198.085 -370.426 -190.344 -379.193 -182.039 -387.37C-152.472 -416.927 -108.536 -464.992 -92.1045 -488.596C-92.1045 -488.596 -128.991 -434.452 -155.648 -407.301C-182.304 -380.149 -213.921 -334.518 -219.864 -330.107L-219.826 -330.129ZM1377.51 55.9259C1280.63 95.7564 1183.44 135.2 1083.49 166.281C957.089 204.61 829.963 240.547 701.285 270.181C658.37 280.23 615.351 290.183 572.267 299.024C543.218 305.512 514.023 311.197 484.713 316.584C469.53 319.512 454.475 322.94 439.025 324.666C416.26 327.535 393.634 331.106 370.81 332.963C332.194 335.755 287.205 340.649 266.24 335.597C674.279 276.244 1074.51 164.275 1461.18 19.1096C1436.89 30.1879 1403.17 45.3756 1377.47 55.9485L1377.51 55.9259ZM2142.85 159.739C2127.44 183.992 2107.07 204.277 2086.15 223.376C2028.81 274.568 1965.29 317.602 1900.54 358.069C1791.8 425.597 1678.22 484.581 1562.81 538.905C1560.79 539.836 1558.57 540.576 1556.45 541.31C1556.17 541.329 1555.89 541.283 1555.63 541.175C1555.37 541.068 1555.13 540.902 1554.94 540.689C1554.62 540.302 1554.37 539.404 1554.65 539.083C1555.53 537.272 1556.66 535.6 1558 534.115C1562.12 530.522 1566.45 527.12 1570.88 523.914C1578.63 518.381 1586.38 512.95 1595.1 508.882C1734.31 442.292 1871.05 368.947 1997.81 279.65C2043.76 245.876 2150.53 169.839 2155.58 109.967C2155.73 107.522 2155.9 105.28 2155.96 103.043C2156.37 104.846 2156.68 106.858 2157.11 109.166C2159.43 124.171 2151.92 145.522 2142.81 159.761L2142.85 159.739ZM-2.87313 938.215C0.0869402 937.836 3.06858 937.659 6.05249 937.687C55.6062 936.785 137.026 930.447 202.185 923.751C217.526 921.828 232.896 920.412 248.248 918.692C330.51 908.244 413.17 894.525 494.39 878.049C494.39 878.049 458.82 887.46 457.817 892.188C456.815 896.916 482.819 895.581 482.433 895.705C444.624 902.204 394.22 908.738 356.352 914.225C237.438 932.423 117.46 949.263 -3.00921 951.01C-6.45999 950.91 -17.882 949.15 -18.0151 945.2C-18.1481 941.25 -7.41725 938.605 -2.91124 938.237L-2.87313 938.215ZM2155.87 103.049C2154.73 96.4754 2152.11 90.2664 2148.21 84.9297C2144.59 103.817 2132.62 116.096 2127.47 122.388C2120.58 130.711 2068.65 201.881 1860.76 322.668C1653.08 443.444 938.026 811.415 72.5664 881.892C-284.984 910.958 -530.689 865.006 -621.066 807.532C-778.918 707.161 -789.278 597.559 -779.746 545.236C-761.929 447.871 -617.562 392.038 -477.692 414.007C-321.828 438.481 -193.823 447.756 158.413 415.351C510.649 382.945 1249.5 216.135 1852.45 -89.5892C1852.45 -89.5892 1891.31 -109.141 1938.18 -135.702L1943.98 -139.008C1965.22 -151.144 1987.76 -164.585 2008.97 -178.221C2016.81 -183.272 2024.46 -188.342 2031.77 -193.382C2040.1 -199.133 2048 -204.836 2055.25 -210.421C2062.84 -216.259 2069.73 -221.954 2075.67 -227.43C2089.92 -240.533 2098.76 -252.3 2098.9 -261.392C2098.91 -262.068 2098.87 -262.744 2098.78 -263.414C2099.33 -259.783 2102.69 -237.705 2107.42 -206.534C2108.06 -202.259 2108.74 -197.783 2109.44 -193.156C2109.74 -191.144 2110.05 -189.133 2110.37 -187.122C2110.39 -186.788 2110.46 -186.458 2110.51 -186.116C2124.21 -96.1353 2145.3 42.4268 2148.55 63.7191C2149.32 68.7795 2149.49 73.9154 2149.05 79.014C2154.63 89.3404 2155.92 96.1653 2155.83 103.072L2155.87 103.049ZM2120.89 -116.774C2119.47 -126.067 2118.07 -135.271 2116.7 -144.293C2116.52 -137.161 2114.17 -130.275 2109.97 -124.613C2102.38 -114.38 2084.68 -88.8947 2005.13 -36.48C1981.51 -20.8744 1952.43 -2.97703 1916.54 17.647C1916.54 17.647 1842.44 69.3844 1831.92 76.0145C1833.98 75.0908 1899.85 45.3663 1914.72 39.0769C1913.28 40.0248 1820.16 101.3 1611.34 200.77C1622.86 195.856 1887.59 82.5153 2033.58 -22.8893C2066.18 -46.4141 2092.86 -69.5479 2109.48 -90.9913C2117.61 -101.479 2120.5 -110.103 2120.92 -116.755L2120.89 -116.774ZM1083.99 499.638C933.587 553.29 598.97 657.928 351.59 689.205C120.426 718.407 55.486 713.723 -59.3452 719.298C-59.4552 719.101 -260.292 743.464 -352.33 738.252C-352.33 738.252 -207.157 778.48 182.125 746.725C182.125 746.725 467.513 729.133 870.885 600.233C1265.76 474.068 1441.75 386.832 1441.75 386.832C1537.27 355.809 1941.75 190.44 2103.85 20.2172L2101.79 18.6947C2077.9 36.843 2021.24 75.0252 1925.34 112.423L1937.96 104.369L1969.99 71.8357C1968.21 72.7325 1853.96 130.062 1760.09 164.62C1760.09 164.62 1614.85 245.876 1260.22 376.765C1260.22 376.765 1099.41 449.2 1068.71 459.439L1195.96 425.627C1195.96 425.627 1556.33 310.373 1839.27 161.966C1831.42 166.845 1574.06 324.597 1083.99 499.638ZM2107.29 -205.897C2102.85 -175.036 2033.73 -122.173 1936.64 -63.7982C1846.66 -9.68053 1732.63 49.1584 1623.83 99.6091C1373.58 215.717 1143.95 293.035 1136.85 295.423C1436.96 208.964 1774.45 65.8964 1942.13 -28.2571C1954.72 -35.328 1966.4 -42.0574 1977.16 -48.4453C2110.17 -127.202 2112.13 -155.531 2112.13 -155.531C2104.52 -142.02 2074.22 -124.923 2073.14 -124.321C2073.74 -124.824 2083.59 -133.109 2099.94 -151.867C2108.45 -161.738 2111.06 -171.169 2111.5 -178.126C2109.98 -187.91 2108.6 -197.237 2107.29 -205.877L2107.29 -205.897ZM2115.17 7.85608C2114.7 8.27953 2110.35 12.2002 2101.83 18.6823L2103.88 20.2048C2107.79 16.1175 2111.54 12.0116 2115.16 7.88702L2115.17 7.85608ZM2120.88 -117.25C2119.54 -126.711 2118.11 -135.963 2116.69 -145.114C2116.7 -144.852 2116.72 -144.589 2116.66 -144.322C2118.04 -135.269 2119.43 -126.096 2120.86 -116.802C2120.86 -116.904 2120.86 -117.066 2120.87 -117.219L2120.88 -117.25ZM2111.56 -178.911C2111.2 -181.345 2110.83 -183.759 2110.47 -186.143C2110.45 -186.477 2110.36 -186.807 2110.33 -187.15C2110.01 -189.161 2109.7 -191.172 2109.4 -193.184C2108.7 -197.811 2108.02 -202.237 2107.38 -206.562L2107.3 -205.918C2108.61 -197.278 2110.02 -187.954 2111.51 -178.137C2111.52 -178.36 2111.5 -178.623 2111.55 -178.88L2111.56 -178.911Z" fill="#10DC7F"/>
<path d="M1831.5 64.5C1700.5 126.167 1133.6 399.4 1128 401H1831.5V64.5Z" fill="#10DC7F"/>
</g>
</g>
<defs>
<clipPath id="clip0_1549_63491">
<rect width="1800" height="390" fill="white"/>
</clipPath>
<clipPath id="clip1_1549_63491">
<rect width="1800" height="451" fill="white" transform="translate(0 -61)"/>
</clipPath>
</defs>
</svg>
