<svg width="1280" height="1058" viewBox="0 0 1280 1058" fill="none" xmlns="http://www.w3.org/2000/svg">
<path d="M683.351 544.395C699.294 491.845 518.37 527.622 472.799 533.206C427.227 538.79 315.62 556.62 278.206 561.198C246.732 565.029 189.835 570.152 172.73 571.649C186.847 570.172 234.409 564.3 359.894 541.761C548.202 507.918 636.612 507.469 666.414 512.738C695.589 517.93 683.792 543.469 683.351 544.395ZM170.572 571.855C170.207 571.88 169.869 571.907 169.579 571.94C169.867 571.899 170.2 571.891 170.572 571.855ZM513.896 1055.91C512.355 1027.82 506.463 903.153 506.282 899.261L519.151 1023.73L642.401 686.486C642.401 686.486 216.024 817.619 99.2245 829.579C-17.5755 841.538 -3.43733 793.085 8.23869 739.844L8.39773 739.32L8.15403 739.866C19.83 686.625 48.0701 560.132 48.0701 560.132C48.0701 560.132 66.5882 491.803 139.534 388.282C212.48 284.762 460.914 29.8179 836.637 36.9941C977.575 39.6286 1129.04 89.0095 1184.07 121.382C1245.02 157.251 1301.99 246.659 1269.99 320.508C1237.98 394.357 1118.83 405.313 1051.65 377.014C1020.41 363.686 842.567 271.715 603.66 302.231C499.44 315.576 242.176 391.528 80.9883 613.316C150.141 614.324 331.627 585.113 468.609 560.293C572.773 541.46 643.908 538.831 655.942 539.057C685.05 539.7 684.037 553.862 684.037 553.862C684.037 553.862 687.123 668.965 684.453 676.943C681.783 684.921 515.508 1084.44 513.896 1055.91ZM55.6481 726.868C76.8064 733.727 103.272 730.266 121.932 726.447C140.592 722.627 297.642 684.177 297.642 684.177L233.942 691.531C233.942 691.531 169.588 707.958 107.78 712.899C45.9726 717.84 38.1063 698.977 34.1337 691.598C33.7307 690.841 33.3677 690.062 33.0462 689.266C31.5131 692.098 29.9969 694.925 28.4976 697.748C31.1935 712.277 38.403 721.275 55.6504 726.876L55.6481 726.868ZM195.19 643.895L275.18 650.886C275.18 650.886 508.654 622.099 540.56 609.827L554.436 599.664L526.462 594.45C526.467 594.367 261.483 646.114 195.19 643.895ZM75.3028 524.292C300.812 96.1484 769.31 70.5222 769.31 70.5222L770.103 60.9588C770.103 60.9588 568.018 67.0828 362.348 200.992C158.481 333.774 76.7081 521.074 75.3282 524.286L75.3028 524.292ZM50.8725 618.626L51.0163 618.588C111.223 486.007 291.569 340.627 297.159 336.133C165.984 418.852 81.3644 554.497 71.4638 570.831C192.788 360.795 367.895 268.138 421.45 238.763C475.147 209.305 497.363 202.172 626.829 178.921C823.125 143.708 1029.51 184.792 1032.73 185.455C730.99 72.5012 501.699 179.422 415.264 227.185C285.431 298.831 165.016 416.796 105.734 503.946C49.4113 586.735 50.631 615.931 50.8978 618.619L50.8725 618.626ZM601.138 677.48C594.838 678.373 588.474 678.742 582.113 678.583C573.2 678.157 591.157 671.711 591.157 671.711L280.526 747.682L432.08 702.261L449.052 690.451C159.046 766.887 106.009 767.662 69.8915 767.263C33.7742 766.864 21.3563 750.309 17.7453 739.203C16.2764 734.413 15.4235 729.455 15.2073 724.45C14.2529 726.439 13.3323 728.42 12.41 730.428C11.477 740.792 12.3598 754.953 20.7873 767.447C50.4971 810.961 235.08 760.504 235.08 760.504C222.531 767.497 145.804 798.678 145.804 798.678C217.869 788.619 601.163 677.473 601.163 677.473L601.138 677.48ZM1055.6 411.816C1047.83 407.542 875.341 316.949 670.191 322.805C670.191 322.805 718.302 323.622 748.144 336.143C777.985 348.664 848.313 329.82 1048.37 423.103C1059.07 428.053 1063.39 416.083 1055.62 411.809L1055.6 411.816ZM528.39 340.375C477.599 353.257 379.821 377.641 262.116 456.297C144.411 534.953 96.593 606.321 96.593 606.321C96.593 606.321 213.361 483.886 334.208 423.726C455.054 363.565 548.05 341.643 617.821 336.293C617.863 336.282 579.262 327.288 528.39 340.375ZM883.657 9.86984C890.427 8.05571 891.439 5.06111 882.914 3.71391C874.39 2.36671 711.857 -16.542 548.052 50.8624C384.247 118.267 264.546 201.997 161.102 339.29C161.102 339.29 315.355 146.531 550.941 58.2589C720.359 -5.29325 876.929 11.6726 883.699 9.85849L883.657 9.86984Z" fill="#7633FF"/>
</svg>
